<?xml version="1.0" standalone="no"?>
<!DOCTYPE svg PUBLIC "-//W3C//DTD SVG 20010904//EN"
 "http://www.w3.org/TR/2001/REC-SVG-20010904/DTD/svg10.dtd">
<svg version="1.0" xmlns="http://www.w3.org/2000/svg"
 width="48.000000pt" height="48.000000pt" viewBox="0 0 48.000000 48.000000"
 preserveAspectRatio="xMidYMid meet">

<g transform="translate(0.000000,48.000000) scale(0.100000,-0.100000)"
fill="#000000" stroke="none">
<path d="M149 331 c-35 -35 -39 -44 -39 -90 0 -42 5 -56 29 -83 l28 -32 25 20
26 20 -27 15 c-14 9 -33 28 -40 43 -13 24 -13 30 1 54 8 15 30 34 47 42 36 17
42 50 10 50 -12 0 -39 -17 -60 -39z"/>
<path d="M250 353 c0 -10 14 -25 31 -33 17 -8 39 -27 47 -42 14 -24 14 -30 1
-54 -7 -15 -26 -34 -40 -43 l-27 -15 25 -19 c20 -16 26 -17 40 -5 21 17 43 70
43 103 0 39 -27 83 -63 105 -40 25 -57 25 -57 3z"/>
</g>
</svg>
